<svg width="15" height="19" viewBox="0 0 15 19" fill="none" xmlns="http://www.w3.org/2000/svg">
<path d="M4.6875 9.375H10.3125C10.5781 9.375 10.8009 9.285 10.9809 9.105C11.1603 8.92562 11.25 8.70312 11.25 8.4375C11.25 8.17188 11.1603 7.94906 10.9809 7.76906C10.8009 7.58969 10.5781 7.5 10.3125 7.5H4.6875C4.42188 7.5 4.19938 7.58969 4.02 7.76906C3.84 7.94906 3.75 8.17188 3.75 8.4375C3.75 8.70312 3.84 8.92562 4.02 9.105C4.19938 9.285 4.42188 9.375 4.6875 9.375ZM4.6875 5.625H10.3125C10.5781 5.625 10.8009 5.53531 10.9809 5.35594C11.1603 5.17594 11.25 4.95312 11.25 4.6875C11.25 4.42188 11.1603 4.19906 10.9809 4.01906C10.8009 3.83969 10.5781 3.75 10.3125 3.75H4.6875C4.42188 3.75 4.19938 3.83969 4.02 4.01906C3.84 4.19906 3.75 4.42188 3.75 4.6875C3.75 4.95312 3.84 5.17594 4.02 5.35594C4.19938 5.53531 4.42188 5.625 4.6875 5.625ZM14.9531 17.3203L11.1562 12.375C10.8906 12.0156 10.5625 11.7381 10.1719 11.5425C9.78125 11.3475 9.35937 11.25 8.90625 11.25H0V1.875C0 1.35937 0.18375 0.917812 0.55125 0.550312C0.918125 0.183437 1.35937 0 1.875 0H13.125C13.6406 0 14.0822 0.183437 14.4497 0.550312C14.8166 0.917812 15 1.35937 15 1.875V16.875C15 16.9531 14.9963 17.0275 14.9888 17.0981C14.9806 17.1681 14.9688 17.2422 14.9531 17.3203ZM1.875 18.75C1.35937 18.75 0.918125 18.5666 0.55125 18.1997C0.18375 17.8322 0 17.3906 0 16.875V13.125H8.90625C9.0625 13.125 9.20719 13.1603 9.34031 13.2309C9.47281 13.3009 9.58594 13.3984 9.67969 13.5234L13.6172 18.6797C13.5391 18.7109 13.4572 18.7306 13.3716 18.7388C13.2853 18.7463 13.2031 18.75 13.125 18.75H1.875Z" fill="#111111"/>
</svg>
